<svg width="16" height="16" viewBox="0 0 16 16" fill="none" xmlns="http://www.w3.org/2000/svg">
<path opacity="0.3" fill-rule="evenodd" clip-rule="evenodd" d="M9 1.5C9 0.671573 9.67157 0 10.5 0H14.5C15.3284 0 16 0.671573 16 1.5V5.5C16 6.32843 15.3284 7 14.5 7H10.5C9.67157 7 9 6.32843 9 5.5V1.5ZM0 10.5C0 9.67157 0.671573 9 1.5 9H5.5C6.32843 9 7 9.67157 7 10.5V14.5C7 15.3284 6.32843 16 5.5 16H1.5C0.671573 16 0 15.3284 0 14.5V10.5ZM10.5 9C9.67157 9 9 9.67157 9 10.5V14.5C9 15.3284 9.67157 16 10.5 16H14.5C15.3284 16 16 15.3284 16 14.5V10.5C16 9.67157 15.3284 9 14.5 9H10.5Z" fill="#DEE1E6"/>
</svg>
